<?xml version="1.0" encoding="utf-8"?>
<!-- Generator: Adobe Illustrator 16.0.0, SVG Export Plug-In . SVG Version: 6.00 Build 0)  -->
<!DOCTYPE svg PUBLIC "-//W3C//DTD SVG 1.1//EN" "http://www.w3.org/Graphics/SVG/1.1/DTD/svg11.dtd">
<svg version="1.1" xmlns="http://www.w3.org/2000/svg" xmlns:xlink="http://www.w3.org/1999/xlink" x="0px" y="0px"
	 width="210.695px" height="198.667px" viewBox="0 0 210.695 198.667" enable-background="new 0 0 210.695 198.667"
	 xml:space="preserve">
<g id="Capa_4">
	<circle cx="111.362" cy="99.333" r="99.333"/>
</g>
<g id="Capa_1">
	<circle fill="#FFFFFF" stroke="#C1272D" stroke-width="16" stroke-miterlimit="10" cx="111.362" cy="99.083" r="84.25"/>
	<circle fill="#FFFFFF" stroke="#C1272D" stroke-width="12" stroke-miterlimit="10" cx="110.987" cy="98.708" r="49.875"/>
	<circle fill="#C1272D" cx="111.137" cy="99.358" r="24.025"/>
</g>
<g id="Capa_2">
	<path fill="#333333" stroke="#333333" stroke-miterlimit="10" d="M113.232,101.683l-20.225-8.02c-2.56,2.02-6.123,2.35-9.442,0.55
		c-3.47-1.88-33.227-20.61-43.917-30l-1.793-0.99l-14.876,7.84L0,58.653l18.656-5.82l-7.477-4.04l-3.488-4.73l5.891,0.33l6.78,3.66
		l-4.68-18.44l22.99,12.41l1.14,16.52l2.13,1.15l0.02,0.01c13.58,3.69,44.89,18.51,48.37,20.39c3.42,1.84,4.78,5.37,3.78,8.69v0.01
		L113.232,101.683z"/>
</g>
<g id="Capa_3">
	<rect x="110.612" y="90.333" fill="#C1272D" width="13" height="18"/>
</g>
</svg>
