<?xml version="1.0" encoding="utf-8"?>
<!-- Generator: Adobe Illustrator 16.0.0, SVG Export Plug-In . SVG Version: 6.00 Build 0)  -->
<!DOCTYPE svg PUBLIC "-//W3C//DTD SVG 1.1//EN" "http://www.w3.org/Graphics/SVG/1.1/DTD/svg11.dtd">
<svg version="1.1" id="Capa_1" xmlns="http://www.w3.org/2000/svg" xmlns:xlink="http://www.w3.org/1999/xlink" x="0px" y="0px"
	 width="210.695px" height="198.667px" viewBox="0 0 210.695 198.667" enable-background="new 0 0 210.695 198.667"
	 xml:space="preserve">
<g id="Capa_4">
	<circle cx="111.362" cy="99.333" r="99.333"/>
</g>
<g id="Capa_1_1_">
	<circle fill="#FFFFFF" stroke="#C1272D" stroke-width="16" stroke-miterlimit="10" cx="111.362" cy="99.083" r="84.25"/>
	<circle fill="#FFFFFF" stroke="#C1272D" stroke-width="12" stroke-miterlimit="10" cx="110.987" cy="98.708" r="49.875"/>
	<circle fill="#C1272D" cx="111.137" cy="99.358" r="24.025"/>
</g>
<polygon fill="#999999" stroke="#000000" stroke-width="2" stroke-miterlimit="10" points="113.227,101.683 93.008,93.664 
	94.107,88.793 "/>
<path fill="#333333" stroke="#000000" stroke-width="2" stroke-miterlimit="10" d="M94.107,88.784v0.01l-1.1,4.87
	c-2.56,2.02-6.12,2.35-9.44,0.55c-3.47-1.88-33.23-20.61-43.92-30l-1.79-0.99l-14.88,7.84l-22.98-12.41l18.66-5.82l-5.14-2.78
	l-2.34-1.26l-3.49-4.73l5.89,0.33l3.74,2.02l3.04,1.64l-4.68-18.44l22.99,12.41l1.14,16.52l2.13,1.15l0.02,0.01
	c13.58,3.69,44.89,18.51,48.37,20.39C93.747,81.934,95.107,85.463,94.107,88.784z"/>
<g id="Capa_3">
	<rect x="110.612" y="90.333" fill="#C1272D" width="13" height="18"/>
</g>
<line fill="none" stroke="#000000" stroke-width="2" stroke-miterlimit="10" x1="13.518" y1="50.057" x2="37.855" y2="63.223"/>
<line fill="none" stroke="#000000" stroke-width="2" stroke-miterlimit="10" x1="17.317" y1="46.409" x2="39.812" y2="58.543"/>
<line fill="none" stroke="#000000" stroke-width="2" stroke-miterlimit="10" x1="37.855" y1="63.223" x2="39.812" y2="59.051"/>
<line fill="none" stroke="#000000" stroke-width="2" stroke-miterlimit="10" x1="94.107" y1="88.793" x2="94.107" y2="88.784"/>
</svg>
