<?xml version="1.0" encoding="utf-8"?>
<!-- Generator: Adobe Illustrator 16.0.0, SVG Export Plug-In . SVG Version: 6.00 Build 0)  -->
<!DOCTYPE svg PUBLIC "-//W3C//DTD SVG 1.1//EN" "http://www.w3.org/Graphics/SVG/1.1/DTD/svg11.dtd">
<svg version="1.1" xmlns="http://www.w3.org/2000/svg" xmlns:xlink="http://www.w3.org/1999/xlink" x="0px" y="0px"
	 width="287.102px" height="178.491px" viewBox="0 0 287.102 178.491" enable-background="new 0 0 287.102 178.491"
	 xml:space="preserve">
<g id="Capa_1" display="none">
	<path display="inline" fill="#FFFFFF" stroke="#000000" stroke-width="4" stroke-miterlimit="10" d="M398,362.87v55.917
		c0,8.06-5.911,15.104-13.97,15.104H304v21.134l-22.773-21.134h-9.032c-8.059,0-15.195-7.044-15.195-15.104V362.87
		c0-8.06,7.136-13.979,15.195-13.979H384.03C392.089,348.89,398,354.81,398,362.87z"/>
</g>
<g id="Capa_3">
	<path fill="#FFFFFF" stroke="#000000" stroke-width="4" stroke-miterlimit="10" d="M153,34.87v55.917
		c0,8.06-5.911,15.104-13.97,15.104H59v21.134L36.227,105.89h-9.032C19.136,105.89,12,98.846,12,90.787V34.87
		c0-8.06,7.136-13.979,15.195-13.979H139.03C147.089,20.89,153,26.81,153,34.87z"/>
	<rect x="32" y="54.89" fill="#FFFF00" width="100" height="16"/>
	<rect x="32" y="75.89" fill="#FF3333" width="74" height="15"/>
	<rect x="32" y="33.89" fill="#FF3333" width="100" height="16"/>
</g>
<g id="Capa_6">
	<path fill="#FFFFFF" stroke="#000000" stroke-width="4" stroke-miterlimit="10" d="M132,74.87v55.917
		c0,8.06,5.911,15.104,13.971,15.104H226v21.134l22.773-21.134h9.031c8.06,0,15.195-7.044,15.195-15.104V74.87
		c0-8.06-7.136-13.979-15.195-13.979H145.971C137.911,60.89,132,66.81,132,74.87z"/>
	<g>
		<defs>
			<rect id="SVGID_1_" x="150" y="73.89" width="100" height="16"/>
		</defs>
		<clipPath id="SVGID_2_">
			<use xlink:href="#SVGID_1_"  overflow="visible"/>
		</clipPath>
		<rect x="137" y="58.89" clip-path="url(#SVGID_2_)" fill="#0000FF" width="121" height="93"/>
		<polygon clip-path="url(#SVGID_2_)" fill="#FF3333" stroke="#FFFFFF" stroke-width="3" stroke-miterlimit="10" points="
			232.5,150.39 242.5,150.39 169.666,60.39 159,60.39 		"/>
		<polygon clip-path="url(#SVGID_2_)" fill="#FF3333" stroke="#FFFFFF" stroke-width="3" stroke-miterlimit="10" points="
			169,150.39 159,150.39 231.834,60.39 242.5,60.39 		"/>
		<polygon clip-path="url(#SVGID_2_)" fill="#FF3333" stroke="#FFFFFF" stroke-width="3" stroke-miterlimit="10" points="
			138.5,101.39 138.5,109.39 195.5,109.39 195.5,152.39 204.5,152.39 204.5,109.39 256.5,109.39 256.5,101.39 204.5,101.39 
			204.5,59.39 195.5,59.39 195.5,101.39 		"/>
	</g>
	<g>
		<defs>
			<rect id="SVGID_3_" x="176" y="117.89" width="74" height="15"/>
		</defs>
		<clipPath id="SVGID_4_">
			<use xlink:href="#SVGID_3_"  overflow="visible"/>
		</clipPath>
		<rect x="137" y="56.89" clip-path="url(#SVGID_4_)" fill="#0000FF" width="121" height="93"/>
		<polygon clip-path="url(#SVGID_4_)" fill="#FF3333" stroke="#FFFFFF" stroke-width="3" stroke-miterlimit="10" points="
			232.5,148.39 242.5,148.39 169.666,58.39 159,58.39 		"/>
		<polygon clip-path="url(#SVGID_4_)" fill="#FF3333" stroke="#FFFFFF" stroke-width="3" stroke-miterlimit="10" points="
			169,148.39 159,148.39 231.834,58.39 242.5,58.39 		"/>
		<polygon clip-path="url(#SVGID_4_)" fill="#FF3333" stroke="#FFFFFF" stroke-width="3" stroke-miterlimit="10" points="
			138.5,99.39 138.5,107.39 195.5,107.39 195.5,150.39 204.5,150.39 204.5,107.39 256.5,107.39 256.5,99.39 204.5,99.39 
			204.5,57.39 195.5,57.39 195.5,99.39 		"/>
	</g>
	<g>
		<defs>
			<rect id="SVGID_5_" x="150" y="95.89" width="100" height="16"/>
		</defs>
		<clipPath id="SVGID_6_">
			<use xlink:href="#SVGID_5_"  overflow="visible"/>
		</clipPath>
		<rect x="137" y="56.89" clip-path="url(#SVGID_6_)" fill="#0000FF" width="121" height="93"/>
		<polygon clip-path="url(#SVGID_6_)" fill="#FF3333" stroke="#FFFFFF" stroke-width="3" stroke-miterlimit="10" points="
			232.5,148.39 242.5,148.39 169.666,58.39 159,58.39 		"/>
		<polygon clip-path="url(#SVGID_6_)" fill="#FF3333" stroke="#FFFFFF" stroke-width="3" stroke-miterlimit="10" points="
			169,148.39 159,148.39 231.834,58.39 242.5,58.39 		"/>
		<polygon clip-path="url(#SVGID_6_)" fill="#FF3333" stroke="#FFFFFF" stroke-width="3" stroke-miterlimit="10" points="
			138.5,99.39 138.5,107.39 195.5,107.39 195.5,150.39 204.5,150.39 204.5,107.39 256.5,107.39 256.5,99.39 204.5,99.39 
			204.5,57.39 195.5,57.39 195.5,99.39 		"/>
	</g>
</g>
</svg>
